<svg width="20" height="20" viewBox="0 0 20 20" fill="none" xmlns="http://www.w3.org/2000/svg">
<path d="M8.92783 10.7766C8.94853 10.7766 8.96924 10.7766 8.99409 10.7766C9.00238 10.7766 9.01066 10.7766 9.01894 10.7766C9.03137 10.7766 9.04793 10.7766 9.06036 10.7766C10.2739 10.7559 11.2554 10.3293 11.9802 9.51336C13.5748 7.71589 13.3097 4.63451 13.2807 4.34045C13.1772 2.13295 12.1335 1.07683 11.272 0.583979C10.63 0.215373 9.88041 0.0165742 9.04379 7.62939e-06H9.0148C9.01066 7.62939e-06 9.00238 7.62939e-06 8.99823 7.62939e-06H8.97338C8.51366 7.62939e-06 7.61078 0.0745572 6.74518 0.567413C5.87543 1.06027 4.81517 2.11639 4.71163 4.34045C4.68264 4.63451 4.41757 7.71589 6.01211 9.51336C6.73275 10.3293 7.71432 10.7559 8.92783 10.7766ZM5.81745 4.44399C5.81745 4.43157 5.82159 4.41914 5.82159 4.41086C5.95826 1.4413 8.06636 1.12239 8.96924 1.12239H8.98581C8.99409 1.12239 9.00652 1.12239 9.01894 1.12239C10.1372 1.14724 12.0382 1.60282 12.1666 4.41086C12.1666 4.42328 12.1666 4.43571 12.1707 4.44399C12.1749 4.47298 12.4648 7.2893 11.1477 8.77201C10.6259 9.36012 9.93011 9.65004 9.0148 9.65832C9.00652 9.65832 9.00238 9.65832 8.99409 9.65832C8.98581 9.65832 8.98167 9.65832 8.97338 9.65832C8.06222 9.65004 7.36228 9.36012 6.84458 8.77201C5.53167 7.29758 5.81331 4.46884 5.81745 4.44399Z" fill="#70D679"/>
<path d="M9.0022 18.8859C13.003 18.8859 15.633 17.5689 16.3039 17.1878H17.4337C17.4042 17.4681 17.3822 17.5572 17.3062 17.7594C17.2648 17.8671 17.1861 17.9582 17.0908 18.0203L17.0891 18.0214C16.941 18.1153 13.9673 20 9.00635 20C4.02395 20 1.04611 18.1031 0.921857 18.0203C0.822458 17.9582 0.747908 17.8671 0.706492 17.7594C0.486985 17.2044 0.491126 16.0986 0.495268 15.8832V15.8708C0.499409 15.8377 0.49941 15.8045 0.49941 15.7672L0.4996 15.761C0.524545 14.9416 0.582672 13.0322 2.37557 12.4167C2.388 12.4125 2.40042 12.4084 2.41699 12.4042C4.29316 11.9279 5.83799 10.8511 5.85456 10.8387C6.1072 10.6606 6.45509 10.7227 6.63318 10.9754C6.81128 11.228 6.74915 11.5759 6.49651 11.754C6.4261 11.7996 4.77773 12.9509 2.71519 13.4811C1.75019 13.8248 1.6425 14.8561 1.61351 15.8004C1.61351 15.8377 1.60937 15.8708 1.60937 15.9039C1.60109 16.2767 1.63008 16.8524 1.69634 17.1837C2.37143 17.5647 5.01794 18.8859 9.0022 18.8859Z" fill="#70D679"/>
<path d="M18 13C18 11.3444 16.6534 10 15 10C13.3444 10 12 11.3466 12 13C12 14.6556 13.3466 16 15 16C16.6534 16 18 14.6556 18 13ZM15 15.117C13.8322 15.117 12.883 14.1678 12.883 13C12.883 11.8322 13.8322 10.883 15 10.883C16.1678 10.883 17.117 11.8322 17.117 13C17.117 14.1678 16.1678 15.117 15 15.117Z" fill="#70D679"/>
<path d="M16.2208 11.8035L14.4283 13.1611L13.8875 12.4371C13.8433 12.3797 13.7771 12.3488 13.7109 12.3488C13.6645 12.3488 13.6182 12.362 13.5784 12.3929L13.2252 12.6578C13.1789 12.6932 13.148 12.7461 13.1392 12.8035C13.1303 12.8609 13.1458 12.9205 13.1811 12.9669L14.1215 14.2252C14.1568 14.2715 14.2098 14.3024 14.2672 14.3113C14.2782 14.3135 14.2871 14.3135 14.2981 14.3135C14.3467 14.3135 14.393 14.298 14.4305 14.2693L16.755 12.5099C16.8014 12.4746 16.8323 12.4216 16.8411 12.3642C16.85 12.3068 16.8345 12.2472 16.7992 12.2009L16.5321 11.8499C16.4879 11.7925 16.4217 11.7616 16.3555 11.7616C16.3069 11.7572 16.2606 11.7726 16.2208 11.8035Z" fill="#70D679"/>
</svg>
