<svg width="9" height="9" viewBox="0 0 9 9" fill="none" xmlns="http://www.w3.org/2000/svg">
	<g clip-path="url(#clip0)">
		<path d="M4.46723 4.84945C4.47655 4.84945 4.48587 4.84945 4.49705 4.84945C4.50078 4.84945 4.5045 4.84945 4.50823 4.84945C4.51382 4.84945 4.52128 4.84945 4.52687 4.84945C5.07295 4.84013 5.51465 4.64817 5.84081 4.28101C6.55835 3.47215 6.43907 2.08552 6.42602 1.9532C6.37943 0.959826 5.90977 0.484572 5.52211 0.262787C5.23323 0.0969145 4.89589 0.00745496 4.51941 0H4.50637C4.5045 0 4.50078 0 4.49891 0H4.48773C4.28085 0 3.87456 0.0335473 3.48504 0.255332C3.09365 0.477117 2.61653 0.952371 2.56994 1.9532C2.55689 2.08552 2.43761 3.47215 3.15515 4.28101C3.47945 4.64817 3.92115 4.84013 4.46723 4.84945ZM3.06756 1.99979C3.06756 1.9942 3.06942 1.98861 3.06942 1.98488C3.13093 0.648581 4.07957 0.505073 4.48587 0.505073H4.49332C4.49705 0.505073 4.50264 0.505073 4.50823 0.505073C5.01144 0.516256 5.8669 0.721267 5.92468 1.98488C5.92468 1.99047 5.92468 1.99607 5.92654 1.99979C5.9284 2.01284 6.05886 3.28018 5.46619 3.9474C5.23136 4.21205 4.91825 4.34251 4.50637 4.34624C4.50264 4.34624 4.50078 4.34624 4.49705 4.34624C4.49332 4.34624 4.49146 4.34624 4.48773 4.34624C4.07771 4.34251 3.76273 4.21205 3.52977 3.9474C2.93896 3.28391 3.0657 2.01098 3.06756 1.99979Z" fill="#737373" />
		<path d="M8.32676 7.1493C8.32676 7.14744 8.32676 7.14558 8.32676 7.14371C8.32676 7.1288 8.3249 7.11389 8.3249 7.09712C8.31372 6.7281 8.28949 5.86519 7.48062 5.58935C7.47503 5.58749 7.46758 5.58563 7.46199 5.58376C6.62144 5.36943 5.92254 4.88486 5.91508 4.87927C5.80139 4.79913 5.64484 4.82708 5.5647 4.94077C5.48456 5.05446 5.51251 5.21101 5.6262 5.29116C5.65789 5.31352 6.39965 5.82978 7.3278 6.06834C7.76205 6.22303 7.81051 6.6871 7.82355 7.11203C7.82355 7.1288 7.82355 7.14371 7.82542 7.15862C7.82728 7.32636 7.8161 7.58542 7.78628 7.73452C7.48435 7.90598 6.30088 8.49865 4.5005 8.49865C2.70759 8.49865 1.51666 7.90412 1.21287 7.73265C1.18305 7.58356 1.17 7.3245 1.17373 7.15676C1.17373 7.14185 1.17559 7.12694 1.17559 7.11017C1.18864 6.68523 1.2371 6.22116 1.67135 6.06647C2.59949 5.82791 3.34126 5.30979 3.37294 5.28929C3.48663 5.20915 3.51459 5.0526 3.43444 4.93891C3.3543 4.82522 3.19775 4.79727 3.08406 4.87741C3.07661 4.883 2.38143 5.36757 1.53716 5.5819C1.5297 5.58376 1.52411 5.58563 1.51852 5.58749C0.709657 5.86519 0.685428 6.7281 0.674246 7.09526C0.674246 7.11203 0.674246 7.12694 0.672382 7.14185C0.672382 7.14371 0.672382 7.14558 0.672382 7.14744C0.670519 7.24435 0.668655 7.74197 0.767433 7.99171C0.78607 8.04017 0.819618 8.08117 0.864348 8.10913C0.92026 8.1464 2.26029 9 4.50237 9C6.74445 9 8.08448 8.14454 8.14039 8.10913C8.18325 8.08117 8.21866 8.04017 8.2373 7.99171C8.33049 7.74384 8.32863 7.24622 8.32676 7.1493Z" fill="#737373" />
	</g>
	<defs>
		<clipPath id="clip0">
			<rect width="9" height="9" fill="white" />
		</clipPath>
	</defs>
</svg>
