<svg width="10" height="8" viewBox="0 0 10 8" fill="none" xmlns="http://www.w3.org/2000/svg">
<path d="M9.02174 0.630432H0.978262C0.438809 0.630432 0 1.06981 0 1.60869V6.39131C0 6.9308 0.439414 7.36957 0.978262 7.36957H9.02174C9.56037 7.36957 10 6.93104 10 6.39131V1.60869C10 1.07 9.56139 0.630432 9.02174 0.630432ZM8.99537 1.28262C8.82947 1.44852 5.34555 4.93244 5.23059 5.04742C5.10311 5.17489 4.89689 5.17489 4.76941 5.04742C4.65436 4.93233 1.17045 1.44844 1.00463 1.28262H8.99537ZM0.652168 6.36494V1.85246L2.9084 4.10869L0.652168 6.36494ZM1.22201 6.71739L3.36955 4.56985L4.30824 5.50854C4.68961 5.88994 5.31027 5.88996 5.69172 5.50854L6.63041 4.56985L8.77797 6.71739H1.22201ZM9.34783 6.36494L7.09158 4.10869L9.34781 1.85246V6.36494H9.34783Z" fill="#737373"/>
</svg>
