<svg width="10" height="10" viewBox="0 0 10 10" fill="none" xmlns="http://www.w3.org/2000/svg">
<path d="M8.98438 7.07031C9.20012 7.07031 9.375 6.89543 9.375 6.67969V5.23438C9.375 4.37281 8.67406 3.67188 7.8125 3.67188H7.34303V2.29426C7.34303 1.0292 6.29162 0 4.99928 0C3.70693 0 2.65553 1.0292 2.65553 2.29426V3.67188H2.1875C1.32594 3.67188 0.625 4.37281 0.625 5.23438V8.4375C0.625 9.29906 1.32594 10 2.1875 10H7.8125C8.67406 10 9.375 9.29906 9.375 8.4375C9.375 8.22176 9.20012 8.04688 8.98438 8.04688C8.76863 8.04688 8.59375 8.22176 8.59375 8.4375C8.59375 8.86828 8.24328 9.21875 7.8125 9.21875H2.1875C1.75672 9.21875 1.40625 8.86828 1.40625 8.4375V5.23438C1.40625 4.80359 1.75672 4.45312 2.1875 4.45312H7.8125C8.24328 4.45312 8.59375 4.80359 8.59375 5.23438V6.67969C8.59375 6.89543 8.76863 7.07031 8.98438 7.07031ZM6.56178 3.67188H3.43678V2.29426C3.43678 1.45998 4.13771 0.78125 4.99928 0.78125C5.86084 0.78125 6.56178 1.45998 6.56178 2.29426V3.67188Z" fill="#737373"/>
</svg>
