<svg width="20" height="20" viewBox="0 0 20 20" fill="none" xmlns="http://www.w3.org/2000/svg">
<g clip-path="url(#clip0)">
<path d="M9.92783 10.7766C9.94853 10.7766 9.96924 10.7766 9.99409 10.7766C10.0024 10.7766 10.0107 10.7766 10.0189 10.7766C10.0314 10.7766 10.0479 10.7766 10.0604 10.7766C11.2739 10.7559 12.2554 10.3293 12.9802 9.51336C14.5748 7.71589 14.3097 4.63451 14.2807 4.34045C14.1772 2.13295 13.1335 1.07683 12.272 0.583979C11.63 0.215373 10.8804 0.0165742 10.0438 7.62939e-06H10.0148C10.0107 7.62939e-06 10.0024 7.62939e-06 9.99823 7.62939e-06H9.97338C9.51366 7.62939e-06 8.61078 0.0745572 7.74518 0.567413C6.87543 1.06027 5.81517 2.11639 5.71163 4.34045C5.68264 4.63451 5.41757 7.71589 7.01211 9.51336C7.73275 10.3293 8.71432 10.7559 9.92783 10.7766ZM6.81745 4.44399C6.81745 4.43157 6.82159 4.41914 6.82159 4.41086C6.95826 1.4413 9.06636 1.12239 9.96924 1.12239H9.98581C9.99409 1.12239 10.0065 1.12239 10.0189 1.12239C11.1372 1.14724 13.0382 1.60282 13.1666 4.41086C13.1666 4.42328 13.1666 4.43571 13.1707 4.44399C13.1749 4.47298 13.4648 7.2893 12.1477 8.77201C11.6259 9.36012 10.9301 9.65004 10.0148 9.65832C10.0065 9.65832 10.0024 9.65832 9.99409 9.65832C9.98581 9.65832 9.98167 9.65832 9.97338 9.65832C9.06222 9.65004 8.36228 9.36012 7.84458 8.77201C6.53167 7.29758 6.81331 4.46884 6.81745 4.44399Z" fill="white"/>
<path d="M18.505 15.8874C18.505 15.8832 18.505 15.8791 18.505 15.8749C18.505 15.8418 18.5009 15.8087 18.5009 15.7714C18.476 14.9513 18.4222 13.0338 16.6247 12.4208C16.6123 12.4167 16.5957 12.4125 16.5833 12.4084C14.7154 11.9321 13.1623 10.8553 13.1457 10.8428C12.8931 10.6647 12.5452 10.7269 12.3671 10.9795C12.189 11.2321 12.2511 11.58 12.5038 11.7581C12.5742 11.8078 14.2225 12.9551 16.2851 13.4852C17.2501 13.829 17.3578 14.8602 17.3868 15.8045C17.3868 15.8418 17.3868 15.8749 17.3909 15.9081C17.395 16.2808 17.3702 16.8565 17.3039 17.1878C16.633 17.5689 14.003 18.8859 10.0022 18.8859C6.01794 18.8859 3.37143 17.5647 2.69634 17.1837C2.63008 16.8524 2.60109 16.2767 2.60937 15.9039C2.60937 15.8708 2.61351 15.8377 2.61351 15.8004C2.6425 14.8561 2.75019 13.8248 3.71519 13.4811C5.77773 12.9509 7.4261 11.7996 7.49651 11.754C7.74915 11.5759 7.81128 11.228 7.63318 10.9754C7.45509 10.7227 7.1072 10.6606 6.85456 10.8387C6.83799 10.8511 5.29316 11.9279 3.41699 12.4042C3.40042 12.4084 3.388 12.4125 3.37557 12.4167C1.5781 13.0338 1.52426 14.9513 1.49941 15.7672C1.49941 15.8045 1.49941 15.8377 1.49527 15.8708C1.49527 15.8749 1.49527 15.8791 1.49527 15.8832C1.49113 16.0986 1.48698 17.2044 1.70649 17.7594C1.74791 17.8671 1.82246 17.9582 1.92186 18.0203C2.04611 18.1031 5.02395 20 10.0063 20C14.9887 20 17.9666 18.099 18.0908 18.0203C18.1861 17.9582 18.2648 17.8671 18.3062 17.7594C18.5133 17.2085 18.5091 16.1027 18.505 15.8874Z" fill="white"/>
</g>
<defs>
<clipPath id="clip0">
<rect width="20" height="20" fill="white"/>
</clipPath>
</defs>
</svg>
